<?xml version="1.0"?>
<svg xmlns="http://www.w3.org/2000/svg" xmlns:xlink="http://www.w3.org/1999/xlink" xmlns:svgjs="http://svgjs.com/svgjs" version="1.1" width="512" height="512" x="0" y="0" viewBox="0 0 499.216 499.216" style="enable-background:new 0 0 512 512" xml:space="preserve" class=""><g transform="matrix(1.44,-7.053965563088755e-16,7.053965563088756e-16,1.4400000000000002,-49.82712410926854,-164.8275199127197)"><g xmlns="http://www.w3.org/2000/svg"><path d="m289.067 233.141-23.757-23.757 120.02-120.02c1.258-1.258 2.749-2.261 4.389-2.953l7.893-3.329c3.512-1.481 6.253-4.35 7.572-7.926l2.255-6.112c.689-1.868 1.776-3.565 3.184-4.973l59.15-59.151c6.56-6.56 17.197-6.56 23.757 0 6.56 6.56 6.56 17.197 0 23.757z" fill="#c4573a" data-original="#c4573a" style="" class=""/><circle cx="261.492" cy="236.958" fill="#dd7f66" r="28.436" data-original="#dd7f66" style="" class=""/><path d="m261.492 236.958c-30.391-30.391-79.664-30.391-110.055 0l-3.066 18.601-21.458-2.458-74.447 49.003c-11.323 7.453-12.952 23.423-3.366 33.009l18.094 18.094c3.089 3.089 7.395 4.642 11.745 4.235 9.096-.851 16.751 6.726 15.992 15.83l-.025.299c-.358 4.302 1.195 8.543 4.248 11.596l7.066 7.066 57.119 57.119c9.586 9.586 25.555 7.957 33.009-3.366l49.003-74.447-2.972-20.678 19.114-3.846c30.39-30.392 30.39-79.666-.001-110.057z" fill="#fed402" data-original="#fed402" style="" class=""/><path d="m261.492 236.958c-19.03-19.03-45.462-26.141-70.027-21.339 14.666 2.867 28.666 9.978 40.027 21.339 30.391 30.391 30.391 79.664 0 110.055l-65.146 98.971c-.852 1.295-1.82 2.456-2.873 3.495 9.6 9.438 25.454 7.776 32.873-3.495l49.003-74.447-2.02-22.123 18.163-2.401c30.391-30.39 30.391-79.664 0-110.055z" fill="#fac600" data-original="#fac600" style="" class=""/><path d="m245.35 371.538 16.142-24.525-110.055-110.055-24.524 16.143z" fill="#a74b30" data-original="#a74b30" style="" class=""/><path d="m8.265 499.216c-1.92 0-3.839-.732-5.304-2.197-2.929-2.929-2.929-7.678 0-10.606l53.806-53.805c2.931-2.929 7.679-2.928 10.607 0 2.929 2.929 2.929 7.678 0 10.606l-53.806 53.805c-1.464 1.465-3.384 2.197-5.303 2.197z" fill="#deecf1" data-original="#deecf1" style=""/><path d="m17.12 452.872c-1.92 0-3.839-.732-5.304-2.197-2.929-2.929-2.929-7.678 0-10.606l29.117-29.117c2.931-2.929 7.679-2.928 10.607 0 2.929 2.929 2.929 7.678 0 10.606l-29.117 29.117c-1.464 1.465-3.384 2.197-5.303 2.197z" fill="#deecf1" data-original="#deecf1" style=""/><g fill="#fac600"><path d="m172.707 383.47-37.625 37.625 10.607 10.607 37.625-37.625c2.929-2.929 2.929-7.677 0-10.606-2.928-2.929-7.676-2.93-10.607-.001z" fill="#fac600" data-original="#fac600" style="" class=""/><path d="m113.758 337.09c-2.929-2.928-7.677-2.929-10.607 0l-20.489 20.489c5.37.867 9.774 4.665 11.51 9.703l19.586-19.586c2.929-2.929 2.929-7.677 0-10.606z" fill="#fac600" data-original="#fac600" style="" class=""/><path d="m132.527 395.17c2.929-2.929 2.929-7.677 0-10.606-2.93-2.929-7.678-2.929-10.607 0l-11.685 11.685 10.607 10.607z" fill="#fac600" data-original="#fac600" style="" class=""/></g></g></g></svg>
