<svg id="Capa_1" enable-background="new 0 0 512 512" height="512" viewBox="0 0 512 512" width="512" xmlns="http://www.w3.org/2000/svg"><g><path d="m511.998 409.298c-.086-26.307-28.783-43.359-52.312-31.593l-113.686 56.851-33.003 16.503-104.399-40.137 10.752-28.008 92.065 35.391 4.984-11.792c9.809-23.207-1.344-49.944-24.736-59.302l-97.295-38.921c-27.025-10.811-57.382-9.551-83.417 3.463l-37.046 18.516-3.472 107.666 151.729 61.688c29.912 11.968 62.124 15.33 94.777 9.765 9.952-1.696 19.601-5.686 29.061-9.242 7.077-2.662 14.084-5.555 20.841-8.934l145.159-72.086z" fill="#ffd9b3"/><path d="m512 419.126-.002-9.827c-.086-26.307-28.783-43.359-52.312-31.593l-113.686 56.85v65.59c7.077-2.662 14.084-5.555 20.841-8.934z" fill="#fb9"/><g><path d="m166 .001c-74.559 0-135 61.441-135 136s60.441 135 135 135 135-60.441 135-135-60.441-136-135-136z" fill="#f93"/></g><g><path d="m256 .001c-74.559 0-135 61.441-135 136s60.441 135 135 135 135-60.441 135-135-60.441-136-135-136z" fill="#ffc34d"/></g><g><path d="m346 .001c-74.559 0-135 61.441-135 136s60.441 135 135 135 135-60.441 135-135-60.441-136-135-136z" fill="#ffea80"/><path d="m481 136.001c0-74.559-60.441-136-135-136v271c74.559 0 135-60.442 135-135z" fill="#ffc34d"/><path d="m346 121.001c-8.276 0-15-6.724-15-15s6.724-15 15-15 15 6.724 15 15h30c0-19.53-12.578-36.024-30-42.237v-32.763h-15-15v32.763c-17.422 6.213-30 22.707-30 42.237 0 24.814 20.186 45 45 45 8.276 0 15 6.724 15 15s-6.724 15-15 15-15-6.724-15-15h-30c0 19.53 12.578 36.024 30 42.237v32.763h15 15v-32.763c17.422-6.213 30-22.707 30-42.237 0-24.815-20.186-45-45-45z" fill="#ffc34d"/><g fill="#f93"><path d="m361 208.238c17.422-6.213 30-22.707 30-42.237 0-24.814-20.186-45-45-45v30c8.276 0 15 6.724 15 15s-6.724 15-15 15v60h15z"/><path d="m361 106.001h30c0-19.53-12.578-36.024-30-42.237v-32.763h-15v60c8.276 0 15 6.723 15 15z"/></g></g><path d="m0 301.001h91v180h-91z" fill="#60474f"/></g></svg>